<svg width="11" height="11" viewBox="0 0 11 11" fill="none" xmlns="http://www.w3.org/2000/svg">
<path d="M4.6943 0.0842086C4.71519 -0.0280698 4.87606 -0.0280694 4.89694 0.0842089L5.12851 1.32887C5.42471 2.92096 6.67029 4.16654 8.26238 4.46274L9.50704 4.6943C9.61932 4.71519 9.61932 4.87606 9.50704 4.89695L8.26238 5.12851C6.67029 5.42471 5.42471 6.67029 5.12851 8.26238L4.89694 9.50704C4.87606 9.61932 4.71519 9.61932 4.6943 9.50704L4.46274 8.26238C4.16654 6.67029 2.92096 5.42471 1.32887 5.12851L0.0842086 4.89695C-0.0280698 4.87606 -0.0280694 4.71519 0.0842089 4.6943L1.32887 4.46274C2.92096 4.16654 4.16654 2.92096 4.46274 1.32887L4.6943 0.0842086Z" fill="url(#paint0_linear_14225_83485)"/>
<path d="M8.98668 6.99245C8.99477 6.94902 9.05699 6.94902 9.06507 6.99245L9.15465 7.47392C9.26922 8.08977 9.75104 8.57159 10.3669 8.68617L10.8484 8.77574C10.8918 8.78382 10.8918 8.84605 10.8484 8.85413L10.3669 8.94371C9.75104 9.05828 9.26922 9.5401 9.15465 10.156L9.06507 10.6374C9.05699 10.6809 8.99477 10.6809 8.98668 10.6374L8.89711 10.156C8.78253 9.5401 8.30071 9.05828 7.68485 8.94371L7.20339 8.85413C7.15996 8.84605 7.15996 8.78382 7.20339 8.77574L7.68486 8.68617C8.30071 8.57159 8.78253 8.08977 8.89711 7.47391L8.98668 6.99245Z" fill="url(#paint1_linear_14225_83485)"/>
<defs>
<linearGradient id="paint0_linear_14225_83485" x1="-1.56929e-08" y1="5.8383" x2="10.8809" y2="5.8383" gradientUnits="userSpaceOnUse">
<stop stop-color="#FFB352"/>
<stop offset="0.5" stop-color="#FC6839"/>
<stop offset="1" stop-color="#EB2E24"/>
</linearGradient>
<linearGradient id="paint1_linear_14225_83485" x1="-1.56929e-08" y1="5.8383" x2="10.8809" y2="5.8383" gradientUnits="userSpaceOnUse">
<stop stop-color="#FFB352"/>
<stop offset="0.5" stop-color="#FC6839"/>
<stop offset="1" stop-color="#EB2E24"/>
</linearGradient>
</defs>
</svg>
